<svg xmlns="http://www.w3.org/2000/svg" xmlns:xlink="http://www.w3.org/1999/xlink" xmlns:lucid="lucid" width="1424" height="653.71"><g transform="translate(-200 -40)" lucid:page-tab-id="0_0"><path d="M548 534.86h704V673.7H548z" stroke="#000" stroke-width="2" fill="#c1e4f7"/><path d="M468 303.43h144v123.43H468z" stroke="#000" stroke-width="2" fill="#f9d2de"/><path d="M644 303.43h144v123.43H644z" stroke="#000" stroke-width="2" fill="#ffbbb1"/><path d="M820 303.43h144v123.43H820z" stroke="#000" stroke-width="2" fill="#ffdba9"/><path d="M996 303.43h144v123.43H996z" stroke="#000" stroke-width="2" fill="#ffeca9"/><path d="M1172 303.43h168v123.43h-168z" stroke="#000" stroke-width="2" fill="#fff"/><path d="M1172 303.43h168L1256 180z" stroke="#000" stroke-width="2" fill="#99d5ca"/><path d="M468 335.14h144v60H468z" stroke="#000" stroke-opacity="0" stroke-width="2" fill="#fff" fill-opacity="0"/><use xlink:href="#a" transform="matrix(1,0,0,1,473.00000000000006,340.1428571428571) translate(20.13919753086421 30.822222222222223)"/><use xlink:href="#b" transform="matrix(1,0,0,1,473.00000000000006,340.1428571428571) translate(81.51512345679012 30.822222222222223)"/><path d="M644 335.14h144v60H644z" stroke="#000" stroke-opacity="0" stroke-width="2" fill="#fff" fill-opacity="0"/><use xlink:href="#a" transform="matrix(1,0,0,1,649.0000000000001,340.1428571428571) translate(20.13919753086421 30.822222222222223)"/><use xlink:href="#c" transform="matrix(1,0,0,1,649.0000000000001,340.1428571428571) translate(81.51512345679012 30.822222222222223)"/><path d="M820 335.14h144v60H820z" stroke="#000" stroke-opacity="0" stroke-width="2" fill="#fff" fill-opacity="0"/><use xlink:href="#a" transform="matrix(1,0,0,1,825.0000000000001,340.1428571428571) translate(20.13919753086421 30.822222222222223)"/><use xlink:href="#d" transform="matrix(1,0,0,1,825.0000000000001,340.1428571428571) translate(81.51512345679012 30.822222222222223)"/><path d="M996 335.14h144v60H996z" stroke="#000" stroke-opacity="0" stroke-width="2" fill="#fff" fill-opacity="0"/><use xlink:href="#a" transform="matrix(1,0,0,1,1001.0000000000002,340.1428571428571) translate(20.13919753086421 30.822222222222223)"/><use xlink:href="#e" transform="matrix(1,0,0,1,1001.0000000000002,340.1428571428571) translate(81.51512345679012 30.822222222222223)"/><path d="M1172 312.06h168v114.8h-168z" stroke="#000" stroke-opacity="0" stroke-width="2"/><use xlink:href="#f" transform="matrix(1,0,0,1,1177.0000000000005,317.0571428571429) translate(9.618518518518542 23.388888888888893)"/><use xlink:href="#g" transform="matrix(1,0,0,1,1177.0000000000005,317.0571428571429) translate(30.521913580246924 58.322222222222216)"/><use xlink:href="#h" transform="matrix(1,0,0,1,1177.0000000000005,317.0571428571429) translate(52.35524691358026 93.25555555555553)"/><path d="M1300 60h172v143.43h-172z" stroke="#000" stroke-opacity="0" stroke-width="2" fill="#fff" fill-opacity="0"/><use xlink:href="#i" transform="matrix(1,0,0,1,1305,65) translate(13.198148148148164 35.66666666666667)"/><use xlink:href="#j" transform="matrix(1,0,0,1,1305,65) translate(87.96296296296295 35.66666666666667)"/><use xlink:href="#k" transform="matrix(1,0,0,1,1305,65) translate(28.821296296296318 73.26666666666667)"/><use xlink:href="#l" transform="matrix(1,0,0,1,1305,65) translate(33.216666666666676 110.86666666666666)"/><path d="M1299 131.7h-43v28.02" stroke="#000" stroke-width="2" fill="none"/><path d="M1300 132.7h-1.03v-2h1.03z"/><path d="M1256 175l-4.64-14.28h9.28z" stroke="#000" stroke-width="2"/><path d="M548 558.9h704v114.8H548z" stroke="#000" stroke-opacity="0" stroke-width="2" fill="#fff" fill-opacity="0"/><use xlink:href="#m" transform="matrix(1,0,0,1,553.0000000000001,563.9142857142856) translate(176.65956790123465 58.32222222222222)"/><use xlink:href="#n" transform="matrix(1,0,0,1,553.0000000000001,563.9142857142856) translate(280.00401234567903 58.32222222222222)"/><use xlink:href="#o" transform="matrix(1,0,0,1,553.0000000000001,563.9142857142856) translate(386.58302469135805 58.32222222222222)"/><use xlink:href="#p" transform="matrix(1,0,0,1,553.0000000000001,563.9142857142856) translate(451.1935185185185 58.32222222222222)"/><path d="M716 446.36v69" stroke="#000" stroke-width="2" fill="none"/><path d="M716 431.1l4.64 14.26h-9.28zM716 530.62l-4.64-14.26h9.28z" stroke="#000" stroke-width="2"/><path d="M892 446.36v69" stroke="#000" stroke-width="2" fill="none"/><path d="M892 431.1l4.64 14.26h-9.28zM892 530.62l-4.64-14.26h9.28z" stroke="#000" stroke-width="2"/><path d="M1068 446.36v69" stroke="#000" stroke-width="2" fill="none"/><path d="M1068 431.1l4.64 14.26h-9.28zM1068 530.62l-4.64-14.26h9.28z" stroke="#000" stroke-width="2"/><path d="M1256 445.36v3.5h94V616.3h-79.5" stroke="#000" stroke-width="2" fill="none"/><path d="M1256 430.1l4.64 14.26h-9.28zM1255.24 616.3l14.26-4.62v9.27z" stroke="#000" stroke-width="2"/><path d="M540 446.36v34.5h73.33v34.5" stroke="#000" stroke-width="2" fill="none"/><path d="M540 431.1l4.64 14.26h-9.28zM613.33 530.62l-4.63-14.26h9.27z" stroke="#000" stroke-width="2"/><path d="M220 285.14h224v186H220z" fill="#fff" fill-opacity="0"/><g><use xlink:href="#q" transform="matrix(1,0,0,1,225,290.1428571428571) translate(0 23.46670222222222)"/><use xlink:href="#r" transform="matrix(1,0,0,1,225,290.1428571428571) translate(74.96307654320987 23.46670222222222)"/><use xlink:href="#s" transform="matrix(1,0,0,1,225,290.1428571428571) translate(167.68914296296293 23.46670222222222)"/><use xlink:href="#t" transform="matrix(1,0,0,1,225,290.1428571428571) translate(0 58.666755555555554)"/><use xlink:href="#u" transform="matrix(1,0,0,1,225,290.1428571428571) translate(48.563036543209876 58.666755555555554)"/><use xlink:href="#v" transform="matrix(1,0,0,1,225,290.1428571428571) translate(0 93.86680888888888)"/><use xlink:href="#w" transform="matrix(1,0,0,1,225,290.1428571428571) translate(104.29645432098766 93.86680888888888)"/><use xlink:href="#x" transform="matrix(1,0,0,1,225,290.1428571428571) translate(0 129.0668622222222)"/><use xlink:href="#y" transform="matrix(1,0,0,1,225,290.1428571428571) translate(42.28895296296295 129.0668622222222)"/><use xlink:href="#z" transform="matrix(1,0,0,1,225,290.1428571428571) translate(79.68900962962962 129.0668622222222)"/><use xlink:href="#A" transform="matrix(1,0,0,1,225,290.1428571428571) translate(0 164.26691555555553)"/></g><path d="M1380 285.14h224v326.8h-224z" fill="#fff" fill-opacity="0"/><g><use xlink:href="#B" transform="matrix(1,0,0,1,1385,290.1428571428571) translate(21.94785716049384 23.566462222222224)"/><use xlink:href="#C" transform="matrix(1,0,0,1,1385,290.1428571428571) translate(80.53313111111112 23.566462222222224)"/><use xlink:href="#D" transform="matrix(1,0,0,1,1385,290.1428571428571) translate(62.607178024691365 58.76651555555556)"/><use xlink:href="#E" transform="matrix(1,0,0,1,1385,290.1428571428571) translate(163.56288654320988 58.76651555555556)"/><use xlink:href="#F" transform="matrix(1,0,0,1,1385,290.1428571428571) translate(0.6811582716049429 93.96656888888889)"/><use xlink:href="#G" transform="matrix(1,0,0,1,1385,290.1428571428571) translate(127.71098037037036 93.96656888888889)"/><use xlink:href="#H" transform="matrix(1,0,0,1,1385,290.1428571428571) translate(18.688592962962957 129.1666222222222)"/><use xlink:href="#I" transform="matrix(1,0,0,1,1385,290.1428571428571) translate(56.00716802469135 129.1666222222222)"/><use xlink:href="#J" transform="matrix(1,0,0,1,1385,290.1428571428571) translate(109.70354567901234 129.1666222222222)"/><use xlink:href="#K" transform="matrix(1,0,0,1,1385,290.1428571428571) translate(53.07383024691359 164.36667555555553)"/><use xlink:href="#L" transform="matrix(1,0,0,1,1385,290.1428571428571) translate(176.68142493827162 164.36667555555553)"/><use xlink:href="#M" transform="matrix(1,0,0,1,1385,290.1428571428571) translate(4.103385679012348 199.56672888888886)"/><use xlink:href="#N" transform="matrix(1,0,0,1,1385,290.1428571428571) translate(85.42202740740741 199.56672888888886)"/><use xlink:href="#O" transform="matrix(1,0,0,1,1385,290.1428571428571) translate(142.45915086419754 199.56672888888886)"/><use xlink:href="#P" transform="matrix(1,0,0,1,1385,290.1428571428571) translate(60.89606432098765 234.7667822222222)"/><use xlink:href="#Q" transform="matrix(1,0,0,1,1385,290.1428571428571) translate(140.66655555555553 234.7667822222222)"/><use xlink:href="#R" transform="matrix(1,0,0,1,1385,290.1428571428571) translate(173.25919753086418 234.7667822222222)"/><use xlink:href="#S" transform="matrix(1,0,0,1,1385,290.1428571428571) translate(17.14044246913579 269.9668355555555)"/><use xlink:href="#T" transform="matrix(1,0,0,1,1385,290.1428571428571) translate(129.42209407407407 269.9668355555555)"/><use xlink:href="#U" transform="matrix(1,0,0,1,1385,290.1428571428571) translate(145.63693345679013 305.1668888888889)"/></g><defs><path d="M169-182c-1-43-94-46-97-3 18 66 151 10 154 114 3 95-165 93-204 36-6-8-10-19-12-30l50-8c3 46 112 56 116 5-17-69-150-10-154-114-4-87 153-88 188-35 5 8 8 18 10 28" id="V"/><path d="M25-224v-37h50v37H25zM25 0v-190h50V0H25" id="W"/><path d="M115-3C79 11 28 4 28-45v-112H4v-33h27l15-45h31v45h36v33H77v99c-1 23 16 31 38 25v30" id="X"/><path d="M185-48c-13 30-37 53-82 52C43 2 14-33 14-96s30-98 90-98c62 0 83 45 84 108H66c0 31 8 55 39 56 18 0 30-7 34-22zm-45-69c5-46-57-63-70-21-2 6-4 13-4 21h74" id="Y"/><g id="a"><use transform="matrix(0.08086419753086417,0,0,0.08086419753086417,0,0)" xlink:href="#V"/><use transform="matrix(0.08086419753086417,0,0,0.08086419753086417,19.4074074074074,0)" xlink:href="#W"/><use transform="matrix(0.08086419753086417,0,0,0.08086419753086417,27.49382716049382,0)" xlink:href="#X"/><use transform="matrix(0.08086419753086417,0,0,0.08086419753086417,37.11666666666665,0)" xlink:href="#Y"/></g><path d="M160-152l-12 59h37v26h-43L128 0h-28l14-67H60L46 0H20l13-67H6v-26h33l13-59H15v-26h42l15-67h27l-15 67h54l15-67h27l-14 67h28v26h-34zm-81 0L66-93h55l12-59H79" id="Z"/><path d="M23 0v-37h61v-169l-59 37v-38l62-41h46v211h57V0H23" id="aa"/><g id="b"><use transform="matrix(0.08086419753086417,0,0,0.08086419753086417,0,0)" xlink:href="#Z"/><use transform="matrix(0.08086419753086417,0,0,0.08086419753086417,16.172839506172835,0)" xlink:href="#aa"/></g><path d="M182-182c0 78-84 86-111 141h115V0H12c-6-101 99-100 120-180 1-22-12-31-33-32-23 0-32 14-35 34l-49-3c5-45 32-70 84-70 51 0 83 22 83 69" id="ab"/><g id="c"><use transform="matrix(0.08086419753086417,0,0,0.08086419753086417,0,0)" xlink:href="#Z"/><use transform="matrix(0.08086419753086417,0,0,0.08086419753086417,16.172839506172835,0)" xlink:href="#ab"/></g><path d="M128-127c34 4 56 21 59 58 7 91-148 94-172 28-4-9-6-17-7-26l51-5c1 24 16 35 40 36 23 0 39-12 38-36-1-31-31-36-65-34v-40c32 2 59-3 59-33 0-20-13-33-34-33s-33 13-35 32l-50-3c6-44 37-68 86-68 50 0 83 20 83 66 0 35-22 52-53 58" id="ac"/><g id="d"><use transform="matrix(0.08086419753086417,0,0,0.08086419753086417,0,0)" xlink:href="#Z"/><use transform="matrix(0.08086419753086417,0,0,0.08086419753086417,16.172839506172835,0)" xlink:href="#ac"/></g><path d="M165-50V0h-47v-50H5v-38l105-160h55v161h33v37h-33zm-47-37l2-116L46-87h72" id="ad"/><g id="e"><use transform="matrix(0.08086419753086417,0,0,0.08086419753086417,0,0)" xlink:href="#Z"/><use transform="matrix(0.08086419753086417,0,0,0.08086419753086417,16.172839506172835,0)" xlink:href="#ad"/></g><path fill="#fff" d="M76-208v77h127v40H76V0H24v-248h183v40H76" id="ae"/><path fill="#fff" d="M185-48c-13 30-37 53-82 52C43 2 14-33 14-96s30-98 90-98c62 0 83 45 84 108H66c0 31 8 55 39 56 18 0 30-7 34-22zm-45-69c5-46-57-63-70-21-2 6-4 13-4 21h74" id="af"/><path fill="#fff" d="M88-194c31-1 46 15 58 34l-1-101h50l1 261h-48c-2-10 0-23-3-31C134-8 116 4 84 4 32 4 16-41 15-95c0-56 19-97 73-99zm17 164c33 0 40-30 41-66 1-37-9-64-41-64s-38 30-39 65c0 43 13 65 39 65" id="ag"/><path fill="#fff" d="M135-150c-39-12-60 13-60 57V0H25l-1-190h47c2 13-1 29 3 40 6-28 27-53 61-41v41" id="ah"/><path fill="#fff" d="M133-34C117-15 103 5 69 4 32 3 11-16 11-54c-1-60 55-63 116-61 1-26-3-47-28-47-18 1-26 9-28 27l-52-2c7-38 36-58 82-57s74 22 75 68l1 82c-1 14 12 18 25 15v27c-30 8-71 5-69-32zm-48 3c29 0 43-24 42-57-32 0-66-3-65 30 0 17 8 27 23 27" id="ai"/><path fill="#fff" d="M115-3C79 11 28 4 28-45v-112H4v-33h27l15-45h31v45h36v33H77v99c-1 23 16 31 38 25v30" id="aj"/><g id="f"><use transform="matrix(0.08086419753086417,0,0,0.08086419753086417,0,0)" xlink:href="#ae"/><use transform="matrix(0.08086419753086417,0,0,0.08086419753086417,17.70925925925925,0)" xlink:href="#af"/><use transform="matrix(0.08086419753086417,0,0,0.08086419753086417,33.88209876543209,0)" xlink:href="#ag"/><use transform="matrix(0.08086419753086417,0,0,0.08086419753086417,51.59135802469134,0)" xlink:href="#af"/><use transform="matrix(0.08086419753086417,0,0,0.08086419753086417,67.76419753086418,0)" xlink:href="#ah"/><use transform="matrix(0.08086419753086417,0,0,0.08086419753086417,79.08518518518517,0)" xlink:href="#ai"/><use transform="matrix(0.08086419753086417,0,0,0.08086419753086417,95.25802469135802,0)" xlink:href="#aj"/><use transform="matrix(0.08086419753086417,0,0,0.08086419753086417,104.88086419753085,0)" xlink:href="#af"/><use transform="matrix(0.08086419753086417,0,0,0.08086419753086417,121.05370370370368,0)" xlink:href="#ag"/></g><path fill="#fff" d="M169-182c-1-43-94-46-97-3 18 66 151 10 154 114 3 95-165 93-204 36-6-8-10-19-12-30l50-8c3 46 112 56 116 5-17-69-150-10-154-114-4-87 153-88 188-35 5 8 8 18 10 28" id="ak"/><path fill="#fff" d="M190-63c-7 42-38 67-86 67-59 0-84-38-90-98-12-110 154-137 174-36l-49 2c-2-19-15-32-35-32-30 0-35 28-38 64-6 74 65 87 74 30" id="al"/><path fill="#fff" d="M114-157C55-157 80-60 75 0H25v-261h50l-1 109c12-26 28-41 61-42 86-1 58 113 63 194h-50c-7-57 23-157-34-157" id="am"/><g id="g"><use transform="matrix(0.08086419753086417,0,0,0.08086419753086417,0,0)" xlink:href="#ak"/><use transform="matrix(0.08086419753086417,0,0,0.08086419753086417,19.4074074074074,0)" xlink:href="#af"/><use transform="matrix(0.08086419753086417,0,0,0.08086419753086417,35.58024691358024,0)" xlink:href="#ai"/><use transform="matrix(0.08086419753086417,0,0,0.08086419753086417,51.75308641975308,0)" xlink:href="#ah"/><use transform="matrix(0.08086419753086417,0,0,0.08086419753086417,63.07407407407406,0)" xlink:href="#al"/><use transform="matrix(0.08086419753086417,0,0,0.08086419753086417,79.2469135802469,0)" xlink:href="#am"/></g><path fill="#fff" d="M25-224v-37h50v37H25zM25 0v-190h50V0H25" id="an"/><g id="h"><use transform="matrix(0.08086419753086417,0,0,0.08086419753086417,0,0)" xlink:href="#ak"/><use transform="matrix(0.08086419753086417,0,0,0.08086419753086417,19.4074074074074,0)" xlink:href="#an"/><use transform="matrix(0.08086419753086417,0,0,0.08086419753086417,27.49382716049382,0)" xlink:href="#aj"/><use transform="matrix(0.08086419753086417,0,0,0.08086419753086417,37.11666666666665,0)" xlink:href="#af"/></g><path d="M199 0l-22-63H83L61 0H9l90-248h61L250 0h-51zm-33-102l-36-108c-10 38-24 72-36 108h72" id="ao"/><path d="M25-224v-37h50v37H25zM75 22c2 45-34 59-81 51V38c22 5 31-5 31-27v-201h50V22" id="ap"/><path d="M133-34C117-15 103 5 69 4 32 3 11-16 11-54c-1-60 55-63 116-61 1-26-3-47-28-47-18 1-26 9-28 27l-52-2c7-38 36-58 82-57s74 22 75 68l1 82c-1 14 12 18 25 15v27c-30 8-71 5-69-32zm-48 3c29 0 43-24 42-57-32 0-66-3-65 30 0 17 8 27 23 27" id="aq"/><path d="M144 0l-44-69L55 0H2l70-98-66-92h53l41 62 40-62h54l-67 91 71 99h-54" id="ar"/><g id="i"><use transform="matrix(0.08703703703703701,0,0,0.08703703703703701,0,0)" xlink:href="#ao"/><use transform="matrix(0.08703703703703701,0,0,0.08703703703703701,22.542592592592584,0)" xlink:href="#ap"/><use transform="matrix(0.08703703703703701,0,0,0.08703703703703701,31.246296296296286,0)" xlink:href="#aq"/><use transform="matrix(0.08703703703703701,0,0,0.08703703703703701,48.65370370370369,0)" xlink:href="#ar"/></g><path d="M110-194c64 0 96 36 96 99 0 64-35 99-97 99-61 0-95-36-95-99 0-62 34-99 96-99zm-1 164c35 0 45-28 45-65 0-40-10-65-43-65-34 0-45 26-45 65 0 36 10 65 43 65" id="as"/><path d="M25 0v-261h50V0H25" id="at"/><path d="M135-150c-39-12-60 13-60 57V0H25l-1-190h47c2 13-1 29 3 40 6-28 27-53 61-41v41" id="au"/><g id="j"><use transform="matrix(0.08703703703703701,0,0,0.08703703703703701,0,0)" xlink:href="#V"/><use transform="matrix(0.08703703703703701,0,0,0.08703703703703701,20.888888888888882,0)" xlink:href="#as"/><use transform="matrix(0.08703703703703701,0,0,0.08703703703703701,39.94999999999999,0)" xlink:href="#at"/><use transform="matrix(0.08703703703703701,0,0,0.08703703703703701,48.65370370370369,0)" xlink:href="#au"/></g><path d="M190-63c-7 42-38 67-86 67-59 0-84-38-90-98-12-110 154-137 174-36l-49 2c-2-19-15-32-35-32-30 0-35 28-38 64-6 74 65 87 74 30" id="av"/><path d="M114-157C55-157 80-60 75 0H25v-261h50l-1 109c12-26 28-41 61-42 86-1 58 113 63 194h-50c-7-57 23-157-34-157" id="aw"/><g id="k"><use transform="matrix(0.08703703703703701,0,0,0.08703703703703701,0,0)" xlink:href="#V"/><use transform="matrix(0.08703703703703701,0,0,0.08703703703703701,20.888888888888882,0)" xlink:href="#Y"/><use transform="matrix(0.08703703703703701,0,0,0.08703703703703701,38.29629629629628,0)" xlink:href="#aq"/><use transform="matrix(0.08703703703703701,0,0,0.08703703703703701,55.703703703703674,0)" xlink:href="#au"/><use transform="matrix(0.08703703703703701,0,0,0.08703703703703701,67.88888888888886,0)" xlink:href="#av"/><use transform="matrix(0.08703703703703701,0,0,0.08703703703703701,85.29629629629626,0)" xlink:href="#aw"/></g><path d="M76-208v77h127v40H76V0H24v-248h183v40H76" id="ax"/><path d="M220-157c-53 9-28 100-34 157h-49v-107c1-27-5-49-29-50C55-147 81-57 75 0H25l-1-190h47c2 12-1 28 3 38 10-53 101-56 108 0 13-22 24-43 59-42 82 1 51 116 57 194h-49v-107c-1-25-5-48-29-50" id="ay"/><path d="M137-138c1-29-70-34-71-4 15 46 118 7 119 86 1 83-164 76-172 9l43-7c4 19 20 25 44 25 33 8 57-30 24-41C81-84 22-81 20-136c-2-80 154-74 161-7" id="az"/><g id="l"><use transform="matrix(0.08703703703703701,0,0,0.08703703703703701,0,0)" xlink:href="#ax"/><use transform="matrix(0.08703703703703701,0,0,0.08703703703703701,19.061111111111106,0)" xlink:href="#as"/><use transform="matrix(0.08703703703703701,0,0,0.08703703703703701,38.12222222222221,0)" xlink:href="#au"/><use transform="matrix(0.08703703703703701,0,0,0.08703703703703701,50.30740740740739,0)" xlink:href="#ay"/><use transform="matrix(0.08703703703703701,0,0,0.08703703703703701,78.15925925925924,0)" xlink:href="#az"/></g><path d="M135-194c87-1 58 113 63 194h-50c-7-57 23-157-34-157-59 0-34 97-39 157H25l-1-190h47c2 12-1 28 3 38 12-26 28-41 61-42" id="aA"/><path d="M195-6C206 82 75 100 31 46c-4-6-6-13-8-21l49-6c3 16 16 24 34 25 40 0 42-37 40-79-11 22-30 35-61 35-53 0-70-43-70-97 0-56 18-96 73-97 30 0 46 14 59 34l2-30h47zm-90-29c32 0 41-27 41-63 0-35-9-62-40-62-32 0-39 29-40 63 0 36 9 62 39 62" id="aB"/><path d="M76-54c-1 42 2 86-19 110H24C36 42 46 24 48 0H25v-54h51" id="aC"/><g id="m"><use transform="matrix(0.08086419753086417,0,0,0.08086419753086417,0,0)" xlink:href="#V"/><use transform="matrix(0.08086419753086417,0,0,0.08086419753086417,19.4074074074074,0)" xlink:href="#W"/><use transform="matrix(0.08086419753086417,0,0,0.08086419753086417,27.49382716049382,0)" xlink:href="#aA"/><use transform="matrix(0.08086419753086417,0,0,0.08086419753086417,45.20308641975307,0)" xlink:href="#aB"/><use transform="matrix(0.08086419753086417,0,0,0.08086419753086417,62.91234567901232,0)" xlink:href="#at"/><use transform="matrix(0.08086419753086417,0,0,0.08086419753086417,70.99876543209874,0)" xlink:href="#Y"/><use transform="matrix(0.08086419753086417,0,0,0.08086419753086417,87.17160493827157,0)" xlink:href="#aC"/></g><path d="M88-194c31-1 46 15 58 34l-1-101h50l1 261h-48c-2-10 0-23-3-31C134-8 116 4 84 4 32 4 16-41 15-95c0-56 19-97 73-99zm17 164c33 0 40-30 41-66 1-37-9-64-41-64s-38 30-39 65c0 43 13 65 39 65" id="aD"/><g id="n"><use transform="matrix(0.08086419753086417,0,0,0.08086419753086417,0,0)" xlink:href="#V"/><use transform="matrix(0.08086419753086417,0,0,0.08086419753086417,19.4074074074074,0)" xlink:href="#aw"/><use transform="matrix(0.08086419753086417,0,0,0.08086419753086417,37.11666666666665,0)" xlink:href="#aq"/><use transform="matrix(0.08086419753086417,0,0,0.08086419753086417,53.28950617283949,0)" xlink:href="#au"/><use transform="matrix(0.08086419753086417,0,0,0.08086419753086417,64.61049382716047,0)" xlink:href="#Y"/><use transform="matrix(0.08086419753086417,0,0,0.08086419753086417,80.7833333333333,0)" xlink:href="#aD"/></g><g id="o"><use transform="matrix(0.08086419753086417,0,0,0.08086419753086417,0,0)" xlink:href="#V"/><use transform="matrix(0.08086419753086417,0,0,0.08086419753086417,19.4074074074074,0)" xlink:href="#as"/><use transform="matrix(0.08086419753086417,0,0,0.08086419753086417,37.11666666666665,0)" xlink:href="#at"/><use transform="matrix(0.08086419753086417,0,0,0.08086419753086417,45.20308641975307,0)" xlink:href="#au"/></g><path d="M67-125c0 53 21 87 73 88 37 1 54-22 65-47l45 17C233-25 199 4 140 4 58 4 20-42 15-125 8-235 124-281 211-232c18 10 29 29 36 50l-46 12c-8-25-30-41-62-41-52 0-71 34-72 86" id="aE"/><g id="p"><use transform="matrix(0.08086419753086417,0,0,0.08086419753086417,0,0)" xlink:href="#aE"/><use transform="matrix(0.08086419753086417,0,0,0.08086419753086417,20.94382716049382,0)" xlink:href="#as"/><use transform="matrix(0.08086419753086417,0,0,0.08086419753086417,38.65308641975307,0)" xlink:href="#au"/><use transform="matrix(0.08086419753086417,0,0,0.08086419753086417,49.97407407407406,0)" xlink:href="#Y"/></g><path d="M30 0v-248h187v28H63v79h144v27H63v87h162V0H30" id="aF"/><path d="M141-36C126-15 110 5 73 4 37 3 15-17 15-53c-1-64 63-63 125-63 3-35-9-54-41-54-24 1-41 7-42 31l-33-3c5-37 33-52 76-52 45 0 72 20 72 64v82c-1 20 7 32 28 27v20c-31 9-61-2-59-35zM48-53c0 20 12 33 32 33 41-3 63-29 60-74-43 2-92-5-92 41" id="aG"/><path d="M96-169c-40 0-48 33-48 73s9 75 48 75c24 0 41-14 43-38l32 2c-6 37-31 61-74 61-59 0-76-41-82-99-10-93 101-131 147-64 4 7 5 14 7 22l-32 3c-4-21-16-35-41-35" id="aH"/><path d="M106-169C34-169 62-67 57 0H25v-261h32l-1 103c12-21 28-36 61-36 89 0 53 116 60 194h-32v-121c2-32-8-49-39-48" id="aI"/><g id="q"><use transform="matrix(0.0814816049382716,0,0,0.0814816049382716,0,0)" xlink:href="#aF"/><use transform="matrix(0.0814816049382716,0,0,0.0814816049382716,19.555585185185183,0)" xlink:href="#aG"/><use transform="matrix(0.0814816049382716,0,0,0.0814816049382716,35.851906172839506,0)" xlink:href="#aH"/><use transform="matrix(0.0814816049382716,0,0,0.0814816049382716,50.51859506172839,0)" xlink:href="#aI"/></g><path d="M100-194c63 0 86 42 84 106H49c0 40 14 67 53 68 26 1 43-12 49-29l28 8c-11 28-37 45-77 45C44 4 14-33 15-96c1-61 26-98 85-98zm52 81c6-60-76-77-97-28-3 7-6 17-6 28h103" id="aJ"/><path d="M141 0L90-78 38 0H4l68-98-65-92h35l48 74 47-74h35l-64 92 68 98h-35" id="aK"/><path d="M24-231v-30h32v30H24zM24 0v-190h32V0H24" id="aL"/><path d="M115-194c53 0 69 39 70 98 0 66-23 100-70 100C84 3 66-7 56-30L54 0H23l1-261h32v101c10-23 28-34 59-34zm-8 174c40 0 45-34 45-75 0-40-5-75-45-74-42 0-51 32-51 76 0 43 10 73 51 73" id="aM"/><path d="M59-47c-2 24 18 29 38 22v24C64 9 27 4 27-40v-127H5v-23h24l9-43h21v43h35v23H59v120" id="aN"/><g id="r"><use transform="matrix(0.0814816049382716,0,0,0.0814816049382716,0,0)" xlink:href="#aJ"/><use transform="matrix(0.0814816049382716,0,0,0.0814816049382716,16.29632098765432,0)" xlink:href="#aK"/><use transform="matrix(0.0814816049382716,0,0,0.0814816049382716,30.963009876543207,0)" xlink:href="#aI"/><use transform="matrix(0.0814816049382716,0,0,0.0814816049382716,47.25933086419753,0)" xlink:href="#aL"/><use transform="matrix(0.0814816049382716,0,0,0.0814816049382716,53.696377654320976,0)" xlink:href="#aM"/><use transform="matrix(0.0814816049382716,0,0,0.0814816049382716,69.9926986419753,0)" xlink:href="#aL"/><use transform="matrix(0.0814816049382716,0,0,0.0814816049382716,76.42974543209876,0)" xlink:href="#aN"/></g><path d="M135-143c-3-34-86-38-87 0 15 53 115 12 119 90S17 21 10-45l28-5c4 36 97 45 98 0-10-56-113-15-118-90-4-57 82-63 122-42 12 7 21 19 24 35" id="aO"/><g id="s"><use transform="matrix(0.0814816049382716,0,0,0.0814816049382716,0,0)" xlink:href="#aO"/><use transform="matrix(0.0814816049382716,0,0,0.0814816049382716,14.666688888888888,0)" xlink:href="#aL"/><use transform="matrix(0.0814816049382716,0,0,0.0814816049382716,21.103735679012345,0)" xlink:href="#aN"/><use transform="matrix(0.0814816049382716,0,0,0.0814816049382716,29.251896172839505,0)" xlink:href="#aJ"/></g><path d="M206 0h-36l-40-164L89 0H53L-1-190h32L70-26l43-164h34l41 164 42-164h31" id="aP"/><path d="M24 0v-261h32V0H24" id="aQ"/><g id="t"><use transform="matrix(0.0814816049382716,0,0,0.0814816049382716,0,0)" xlink:href="#aP"/><use transform="matrix(0.0814816049382716,0,0,0.0814816049382716,21.103735679012345,0)" xlink:href="#aL"/><use transform="matrix(0.0814816049382716,0,0,0.0814816049382716,27.5407824691358,0)" xlink:href="#aQ"/><use transform="matrix(0.0814816049382716,0,0,0.0814816049382716,33.97782925925926,0)" xlink:href="#aQ"/></g><path d="M117-194c89-4 53 116 60 194h-32v-121c0-31-8-49-39-48C34-167 62-67 57 0H25l-1-190h30c1 10-1 24 2 32 11-22 29-35 61-36" id="aR"/><path d="M85-194c31 0 48 13 60 33l-1-100h32l1 261h-30c-2-10 0-23-3-31C134-8 116 4 85 4 32 4 16-35 15-94c0-66 23-100 70-100zm9 24c-40 0-46 34-46 75 0 40 6 74 45 74 42 0 51-32 51-76 0-42-9-74-50-73" id="aS"/><g id="u"><use transform="matrix(0.0814816049382716,0,0,0.0814816049382716,0,0)" xlink:href="#aL"/><use transform="matrix(0.0814816049382716,0,0,0.0814816049382716,6.437046790123456,0)" xlink:href="#aR"/><use transform="matrix(0.0814816049382716,0,0,0.0814816049382716,22.733367777777776,0)" xlink:href="#aS"/><use transform="matrix(0.0814816049382716,0,0,0.0814816049382716,39.0296887654321,0)" xlink:href="#aJ"/><use transform="matrix(0.0814816049382716,0,0,0.0814816049382716,55.32600975308642,0)" xlink:href="#aK"/></g><path d="M100-194c62-1 85 37 85 99 1 63-27 99-86 99S16-35 15-95c0-66 28-99 85-99zM99-20c44 1 53-31 53-75 0-43-8-75-51-75s-53 32-53 75 10 74 51 75" id="aT"/><g id="v"><use transform="matrix(0.0814816049382716,0,0,0.0814816049382716,0,0)" xlink:href="#aH"/><use transform="matrix(0.0814816049382716,0,0,0.0814816049382716,14.666688888888888,0)" xlink:href="#aT"/><use transform="matrix(0.0814816049382716,0,0,0.0814816049382716,30.963009876543207,0)" xlink:href="#aR"/><use transform="matrix(0.0814816049382716,0,0,0.0814816049382716,47.25933086419753,0)" xlink:href="#aN"/><use transform="matrix(0.0814816049382716,0,0,0.0814816049382716,55.407491358024686,0)" xlink:href="#aJ"/><use transform="matrix(0.0814816049382716,0,0,0.0814816049382716,71.70381234567901,0)" xlink:href="#aR"/><use transform="matrix(0.0814816049382716,0,0,0.0814816049382716,88.00013333333334,0)" xlink:href="#aN"/></g><path d="M114-163C36-179 61-72 57 0H25l-1-190h30c1 12-1 29 2 39 6-27 23-49 58-41v29" id="aU"/><path d="M108 0H70L1-190h34L89-25l56-165h34" id="aV"/><g id="w"><use transform="matrix(0.0814816049382716,0,0,0.0814816049382716,0,0)" xlink:href="#aU"/><use transform="matrix(0.0814816049382716,0,0,0.0814816049382716,9.69631098765432,0)" xlink:href="#aJ"/><use transform="matrix(0.0814816049382716,0,0,0.0814816049382716,25.99263197530864,0)" xlink:href="#aQ"/><use transform="matrix(0.0814816049382716,0,0,0.0814816049382716,32.429678765432094,0)" xlink:href="#aJ"/><use transform="matrix(0.0814816049382716,0,0,0.0814816049382716,48.72599975308641,0)" xlink:href="#aV"/><use transform="matrix(0.0814816049382716,0,0,0.0814816049382716,63.3926886419753,0)" xlink:href="#aG"/><use transform="matrix(0.0814816049382716,0,0,0.0814816049382716,79.68900962962962,0)" xlink:href="#aR"/><use transform="matrix(0.0814816049382716,0,0,0.0814816049382716,95.98533061728395,0)" xlink:href="#aN"/></g><path d="M101-234c-31-9-42 10-38 44h38v23H63V0H32v-167H5v-23h27c-7-52 17-82 69-68v24" id="aW"/><g id="x"><use transform="matrix(0.0814816049382716,0,0,0.0814816049382716,0,0)" xlink:href="#aW"/><use transform="matrix(0.0814816049382716,0,0,0.0814816049382716,8.14816049382716,0)" xlink:href="#aT"/><use transform="matrix(0.0814816049382716,0,0,0.0814816049382716,24.44448148148148,0)" xlink:href="#aU"/></g><g id="y"><use transform="matrix(0.0814816049382716,0,0,0.0814816049382716,0,0)" xlink:href="#aL"/><use transform="matrix(0.0814816049382716,0,0,0.0814816049382716,6.437046790123456,0)" xlink:href="#aN"/><use transform="matrix(0.0814816049382716,0,0,0.0814816049382716,14.585207283950616,0)" xlink:href="#aO"/></g><g id="z"><use transform="matrix(0.0814816049382716,0,0,0.0814816049382716,0,0)" xlink:href="#aT"/><use transform="matrix(0.0814816049382716,0,0,0.0814816049382716,16.29632098765432,0)" xlink:href="#aP"/><use transform="matrix(0.0814816049382716,0,0,0.0814816049382716,37.400056666666664,0)" xlink:href="#aR"/></g><path d="M210-169c-67 3-38 105-44 169h-31v-121c0-29-5-50-35-48C34-165 62-65 56 0H25l-1-190h30c1 10-1 24 2 32 10-44 99-50 107 0 11-21 27-35 58-36 85-2 47 119 55 194h-31v-121c0-29-5-49-35-48" id="aX"/><path d="M33 0v-38h34V0H33" id="aY"/><g id="A"><use transform="matrix(0.0814816049382716,0,0,0.0814816049382716,0,0)" xlink:href="#aS"/><use transform="matrix(0.0814816049382716,0,0,0.0814816049382716,16.29632098765432,0)" xlink:href="#aT"/><use transform="matrix(0.0814816049382716,0,0,0.0814816049382716,32.59264197530864,0)" xlink:href="#aX"/><use transform="matrix(0.0814816049382716,0,0,0.0814816049382716,56.955641851851844,0)" xlink:href="#aG"/><use transform="matrix(0.0814816049382716,0,0,0.0814816049382716,73.25196283950616,0)" xlink:href="#aL"/><use transform="matrix(0.0814816049382716,0,0,0.0814816049382716,79.68900962962962,0)" xlink:href="#aR"/><use transform="matrix(0.0814816049382716,0,0,0.0814816049382716,95.98533061728395,0)" xlink:href="#aY"/></g><path d="M127-220V0H93v-220H8v-28h204v28h-85" id="aZ"/><g id="B"><use transform="matrix(0.0814816049382716,0,0,0.0814816049382716,0,0)" xlink:href="#aZ"/><use transform="matrix(0.0814816049382716,0,0,0.0814816049382716,17.84447148148148,0)" xlink:href="#aI"/><use transform="matrix(0.0814816049382716,0,0,0.0814816049382716,34.1407924691358,0)" xlink:href="#aJ"/></g><path d="M63-220v92h138v28H63V0H30v-248h175v28H63" id="ba"/><g id="C"><use transform="matrix(0.0814816049382716,0,0,0.0814816049382716,0,0)" xlink:href="#ba"/><use transform="matrix(0.0814816049382716,0,0,0.0814816049382716,17.84447148148148,0)" xlink:href="#aJ"/><use transform="matrix(0.0814816049382716,0,0,0.0814816049382716,34.1407924691358,0)" xlink:href="#aS"/><use transform="matrix(0.0814816049382716,0,0,0.0814816049382716,50.43711345679012,0)" xlink:href="#aJ"/><use transform="matrix(0.0814816049382716,0,0,0.0814816049382716,66.73343444444444,0)" xlink:href="#aU"/><use transform="matrix(0.0814816049382716,0,0,0.0814816049382716,76.42974543209876,0)" xlink:href="#aG"/><use transform="matrix(0.0814816049382716,0,0,0.0814816049382716,92.72606641975307,0)" xlink:href="#aN"/><use transform="matrix(0.0814816049382716,0,0,0.0814816049382716,100.87422691358024,0)" xlink:href="#aJ"/><use transform="matrix(0.0814816049382716,0,0,0.0814816049382716,117.17054790123456,0)" xlink:href="#aS"/></g><path d="M185-189c-5-48-123-54-124 2 14 75 158 14 163 119 3 78-121 87-175 55-17-10-28-26-33-46l33-7c5 56 141 63 141-1 0-78-155-14-162-118-5-82 145-84 179-34 5 7 8 16 11 25" id="bb"/><g id="D"><use transform="matrix(0.0814816049382716,0,0,0.0814816049382716,0,0)" xlink:href="#bb"/><use transform="matrix(0.0814816049382716,0,0,0.0814816049382716,19.555585185185183,0)" xlink:href="#aJ"/><use transform="matrix(0.0814816049382716,0,0,0.0814816049382716,35.851906172839506,0)" xlink:href="#aG"/><use transform="matrix(0.0814816049382716,0,0,0.0814816049382716,52.148227160493825,0)" xlink:href="#aU"/><use transform="matrix(0.0814816049382716,0,0,0.0814816049382716,61.844538148148146,0)" xlink:href="#aH"/><use transform="matrix(0.0814816049382716,0,0,0.0814816049382716,76.51122703703703,0)" xlink:href="#aI"/></g><g id="E"><use transform="matrix(0.0814816049382716,0,0,0.0814816049382716,0,0)" xlink:href="#bb"/><use transform="matrix(0.0814816049382716,0,0,0.0814816049382716,19.555585185185183,0)" xlink:href="#aL"/><use transform="matrix(0.0814816049382716,0,0,0.0814816049382716,25.99263197530864,0)" xlink:href="#aN"/><use transform="matrix(0.0814816049382716,0,0,0.0814816049382716,34.1407924691358,0)" xlink:href="#aJ"/></g><g id="F"><use transform="matrix(0.0814816049382716,0,0,0.0814816049382716,0,0)" xlink:href="#aO"/><use transform="matrix(0.0814816049382716,0,0,0.0814816049382716,14.666688888888888,0)" xlink:href="#aJ"/><use transform="matrix(0.0814816049382716,0,0,0.0814816049382716,30.963009876543207,0)" xlink:href="#aG"/><use transform="matrix(0.0814816049382716,0,0,0.0814816049382716,47.25933086419753,0)" xlink:href="#aU"/><use transform="matrix(0.0814816049382716,0,0,0.0814816049382716,56.955641851851844,0)" xlink:href="#aH"/><use transform="matrix(0.0814816049382716,0,0,0.0814816049382716,71.62233074074074,0)" xlink:href="#aI"/><use transform="matrix(0.0814816049382716,0,0,0.0814816049382716,87.91865172839505,0)" xlink:href="#aJ"/><use transform="matrix(0.0814816049382716,0,0,0.0814816049382716,104.21497271604937,0)" xlink:href="#aO"/></g><g id="G"><use transform="matrix(0.0814816049382716,0,0,0.0814816049382716,0,0)" xlink:href="#aG"/><use transform="matrix(0.0814816049382716,0,0,0.0814816049382716,16.29632098765432,0)" xlink:href="#aH"/><use transform="matrix(0.0814816049382716,0,0,0.0814816049382716,30.963009876543207,0)" xlink:href="#aU"/><use transform="matrix(0.0814816049382716,0,0,0.0814816049382716,40.659320864197525,0)" xlink:href="#aT"/><use transform="matrix(0.0814816049382716,0,0,0.0814816049382716,56.955641851851844,0)" xlink:href="#aO"/><use transform="matrix(0.0814816049382716,0,0,0.0814816049382716,71.62233074074074,0)" xlink:href="#aO"/></g><g id="H"><use transform="matrix(0.0814816049382716,0,0,0.0814816049382716,0,0)" xlink:href="#aG"/><use transform="matrix(0.0814816049382716,0,0,0.0814816049382716,16.29632098765432,0)" xlink:href="#aQ"/><use transform="matrix(0.0814816049382716,0,0,0.0814816049382716,22.733367777777776,0)" xlink:href="#aQ"/></g><g id="I"><use transform="matrix(0.0814816049382716,0,0,0.0814816049382716,0,0)" xlink:href="#aO"/><use transform="matrix(0.0814816049382716,0,0,0.0814816049382716,14.666688888888888,0)" xlink:href="#aL"/><use transform="matrix(0.0814816049382716,0,0,0.0814816049382716,21.103735679012345,0)" xlink:href="#aN"/><use transform="matrix(0.0814816049382716,0,0,0.0814816049382716,29.251896172839505,0)" xlink:href="#aJ"/></g><path d="M68-38c1 34 0 65-14 84H32c9-13 17-26 17-46H33v-38h35" id="bc"/><g id="J"><use transform="matrix(0.0814816049382716,0,0,0.0814816049382716,0,0)" xlink:href="#aH"/><use transform="matrix(0.0814816049382716,0,0,0.0814816049382716,14.666688888888888,0)" xlink:href="#aT"/><use transform="matrix(0.0814816049382716,0,0,0.0814816049382716,30.963009876543207,0)" xlink:href="#aR"/><use transform="matrix(0.0814816049382716,0,0,0.0814816049382716,47.25933086419753,0)" xlink:href="#aN"/><use transform="matrix(0.0814816049382716,0,0,0.0814816049382716,55.407491358024686,0)" xlink:href="#aJ"/><use transform="matrix(0.0814816049382716,0,0,0.0814816049382716,71.70381234567901,0)" xlink:href="#aR"/><use transform="matrix(0.0814816049382716,0,0,0.0814816049382716,88.00013333333334,0)" xlink:href="#aN"/><use transform="matrix(0.0814816049382716,0,0,0.0814816049382716,96.1482938271605,0)" xlink:href="#bc"/></g><path d="M84 4C-5 8 30-112 23-190h32v120c0 31 7 50 39 49 72-2 45-101 50-169h31l1 190h-30c-1-10 1-25-2-33-11 22-28 36-60 37" id="bd"/><path d="M177-190C167-65 218 103 67 71c-23-6-38-20-44-43l32-5c15 47 100 32 89-28v-30C133-14 115 1 83 1 29 1 15-40 15-95c0-56 16-97 71-98 29-1 48 16 59 35 1-10 0-23 2-32h30zM94-22c36 0 50-32 50-73 0-42-14-75-50-75-39 0-46 34-46 75s6 73 46 73" id="be"/><g id="K"><use transform="matrix(0.0814816049382716,0,0,0.0814816049382716,0,0)" xlink:href="#aU"/><use transform="matrix(0.0814816049382716,0,0,0.0814816049382716,9.69631098765432,0)" xlink:href="#aJ"/><use transform="matrix(0.0814816049382716,0,0,0.0814816049382716,25.99263197530864,0)" xlink:href="#aN"/><use transform="matrix(0.0814816049382716,0,0,0.0814816049382716,34.1407924691358,0)" xlink:href="#bd"/><use transform="matrix(0.0814816049382716,0,0,0.0814816049382716,50.43711345679012,0)" xlink:href="#aU"/><use transform="matrix(0.0814816049382716,0,0,0.0814816049382716,60.13342444444444,0)" xlink:href="#aR"/><use transform="matrix(0.0814816049382716,0,0,0.0814816049382716,76.42974543209877,0)" xlink:href="#aL"/><use transform="matrix(0.0814816049382716,0,0,0.0814816049382716,82.86679222222223,0)" xlink:href="#aR"/><use transform="matrix(0.0814816049382716,0,0,0.0814816049382716,99.16311320987654,0)" xlink:href="#be"/></g><g id="L"><use transform="matrix(0.0814816049382716,0,0,0.0814816049382716,0,0)" xlink:href="#aW"/><use transform="matrix(0.0814816049382716,0,0,0.0814816049382716,8.14816049382716,0)" xlink:href="#bd"/><use transform="matrix(0.0814816049382716,0,0,0.0814816049382716,24.44448148148148,0)" xlink:href="#aQ"/><use transform="matrix(0.0814816049382716,0,0,0.0814816049382716,30.881528271604935,0)" xlink:href="#aQ"/></g><path d="M232-93c-1 65-40 97-104 97C67 4 28-28 28-90v-158h33c8 89-33 224 67 224 102 0 64-133 71-224h33v155" id="bf"/><path d="M233-177c-1 41-23 64-60 70L243 0h-38l-65-103H63V0H30v-248c88 3 205-21 203 71zM63-129c60-2 137 13 137-47 0-61-80-42-137-45v92" id="bg"/><path d="M30 0v-248h33v221h125V0H30" id="bh"/><g id="M"><use transform="matrix(0.0814816049382716,0,0,0.0814816049382716,0,0)" xlink:href="#bf"/><use transform="matrix(0.0814816049382716,0,0,0.0814816049382716,21.103735679012345,0)" xlink:href="#bg"/><use transform="matrix(0.0814816049382716,0,0,0.0814816049382716,42.20747135802469,0)" xlink:href="#bh"/><use transform="matrix(0.0814816049382716,0,0,0.0814816049382716,58.50379234567901,0)" xlink:href="#aO"/></g><g id="N"><use transform="matrix(0.0814816049382716,0,0,0.0814816049382716,0,0)" xlink:href="#aN"/><use transform="matrix(0.0814816049382716,0,0,0.0814816049382716,8.14816049382716,0)" xlink:href="#aI"/><use transform="matrix(0.0814816049382716,0,0,0.0814816049382716,24.44448148148148,0)" xlink:href="#aG"/><use transform="matrix(0.0814816049382716,0,0,0.0814816049382716,40.7408024691358,0)" xlink:href="#aN"/></g><g id="O"><use transform="matrix(0.0814816049382716,0,0,0.0814816049382716,0,0)" xlink:href="#aS"/><use transform="matrix(0.0814816049382716,0,0,0.0814816049382716,16.29632098765432,0)" xlink:href="#aL"/><use transform="matrix(0.0814816049382716,0,0,0.0814816049382716,22.733367777777776,0)" xlink:href="#aU"/><use transform="matrix(0.0814816049382716,0,0,0.0814816049382716,32.429678765432094,0)" xlink:href="#aJ"/><use transform="matrix(0.0814816049382716,0,0,0.0814816049382716,48.72599975308641,0)" xlink:href="#aH"/><use transform="matrix(0.0814816049382716,0,0,0.0814816049382716,63.3926886419753,0)" xlink:href="#aN"/></g><g id="P"><use transform="matrix(0.0814816049382716,0,0,0.0814816049382716,0,0)" xlink:href="#bd"/><use transform="matrix(0.0814816049382716,0,0,0.0814816049382716,16.29632098765432,0)" xlink:href="#aO"/><use transform="matrix(0.0814816049382716,0,0,0.0814816049382716,30.963009876543207,0)" xlink:href="#aJ"/><use transform="matrix(0.0814816049382716,0,0,0.0814816049382716,47.25933086419753,0)" xlink:href="#aU"/><use transform="matrix(0.0814816049382716,0,0,0.0814816049382716,56.955641851851844,0)" xlink:href="#aO"/></g><g id="Q"><use transform="matrix(0.0814816049382716,0,0,0.0814816049382716,0,0)" xlink:href="#aN"/><use transform="matrix(0.0814816049382716,0,0,0.0814816049382716,8.14816049382716,0)" xlink:href="#aT"/></g><g id="R"><use transform="matrix(0.0814816049382716,0,0,0.0814816049382716,0,0)" xlink:href="#aN"/><use transform="matrix(0.0814816049382716,0,0,0.0814816049382716,8.14816049382716,0)" xlink:href="#aI"/><use transform="matrix(0.0814816049382716,0,0,0.0814816049382716,24.44448148148148,0)" xlink:href="#aJ"/></g><g id="S"><use transform="matrix(0.0814816049382716,0,0,0.0814816049382716,0,0)" xlink:href="#aU"/><use transform="matrix(0.0814816049382716,0,0,0.0814816049382716,9.69631098765432,0)" xlink:href="#aJ"/><use transform="matrix(0.0814816049382716,0,0,0.0814816049382716,25.99263197530864,0)" xlink:href="#aQ"/><use transform="matrix(0.0814816049382716,0,0,0.0814816049382716,32.429678765432094,0)" xlink:href="#aJ"/><use transform="matrix(0.0814816049382716,0,0,0.0814816049382716,48.72599975308641,0)" xlink:href="#aV"/><use transform="matrix(0.0814816049382716,0,0,0.0814816049382716,63.3926886419753,0)" xlink:href="#aG"/><use transform="matrix(0.0814816049382716,0,0,0.0814816049382716,79.68900962962962,0)" xlink:href="#aR"/><use transform="matrix(0.0814816049382716,0,0,0.0814816049382716,95.98533061728395,0)" xlink:href="#aN"/></g><g id="T"><use transform="matrix(0.0814816049382716,0,0,0.0814816049382716,0,0)" xlink:href="#aJ"/><use transform="matrix(0.0814816049382716,0,0,0.0814816049382716,16.29632098765432,0)" xlink:href="#aK"/><use transform="matrix(0.0814816049382716,0,0,0.0814816049382716,30.963009876543207,0)" xlink:href="#aI"/><use transform="matrix(0.0814816049382716,0,0,0.0814816049382716,47.25933086419753,0)" xlink:href="#aL"/><use transform="matrix(0.0814816049382716,0,0,0.0814816049382716,53.696377654320976,0)" xlink:href="#aM"/><use transform="matrix(0.0814816049382716,0,0,0.0814816049382716,69.9926986419753,0)" xlink:href="#aL"/><use transform="matrix(0.0814816049382716,0,0,0.0814816049382716,76.42974543209876,0)" xlink:href="#aN"/></g><g id="U"><use transform="matrix(0.0814816049382716,0,0,0.0814816049382716,0,0)" xlink:href="#aO"/><use transform="matrix(0.0814816049382716,0,0,0.0814816049382716,14.666688888888888,0)" xlink:href="#aL"/><use transform="matrix(0.0814816049382716,0,0,0.0814816049382716,21.103735679012345,0)" xlink:href="#aN"/><use transform="matrix(0.0814816049382716,0,0,0.0814816049382716,29.251896172839505,0)" xlink:href="#aJ"/><use transform="matrix(0.0814816049382716,0,0,0.0814816049382716,45.54821716049382,0)" xlink:href="#aO"/><use transform="matrix(0.0814816049382716,0,0,0.0814816049382716,60.214906049382705,0)" xlink:href="#aY"/></g></defs></g></svg>
